<svg height="512pt" viewBox="-57 0 512 512.001" width="512pt" xmlns="http://www.w3.org/2000/svg"><path d="m306.675781 504.453125h-216.269531v-181.425781c0-6.308594 5.117188-11.425782 11.425781-11.425782h193.417969c6.308594 0 11.425781 5.117188 11.425781 11.425782zm0 0" fill="#ffda2d"/><path d="m295.25 311.601562h-39.25c6.308594 0 11.425781 5.117188 11.425781 11.425782v181.425781h39.25v-181.425781c0-6.308594-5.117187-11.425782-11.425781-11.425782zm0 0" fill="#fec002"/><path d="m61.175781 504.453125h-53.628906v-150.652344c0-23.304687 18.894531-42.199219 42.203125-42.199219 6.308594 0 11.425781 5.117188 11.425781 11.425782zm0 0" fill="#00989e"/><path d="m49.75 311.601562c-4.867188 0-9.53125.832032-13.882812 2.347657 2.734374 2.085937 4.507812 5.371093 4.507812 9.078125v181.425781h20.800781v-181.425781c0-6.308594-5.117187-11.425782-11.425781-11.425782zm0 0" fill="#00777b"/><path d="m255.664062 443.164062h-114.25c-3.300781 0-5.980468-2.675781-5.980468-5.980468v-8.003906c0-34.851563 28.253906-63.105469 63.105468-63.105469 34.851563 0 63.105469 28.253906 63.105469 63.105469v8.003906c0 3.300781-2.675781 5.980468-5.980469 5.980468zm0 0" fill="#ffec97"/><path d="m61.175781 336.972656h29.230469v36.605469h-29.230469zm0 0" fill="#beccd3"/><path d="m61.175781 336.972656v10.800782h3.527344c8.496094 0 15.386719 6.890624 15.386719 15.390624v10.414063h10.316406v-36.605469zm0 0" fill="#a7b6bc"/><path d="m335.90625 504.453125h53.625v-150.652344c0-23.304687-18.894531-42.199219-42.199219-42.199219-6.308593 0-11.425781 5.117188-11.425781 11.425782zm0 0" fill="#00989e"/><path d="m347.332031 311.601562c-2.722656 0-5.21875.957032-7.179687 2.542969 16.1875 5.902344 27.742187 21.429688 27.742187 39.660157v150.648437h21.636719v-150.648437c0-23.308594-18.894531-42.203126-42.199219-42.203126zm0 0" fill="#00777b"/><path d="m306.675781 336.972656h29.230469v36.605469h-29.230469zm0 0" fill="#beccd3"/><path d="m306.675781 336.972656v10.800782c10.304688 0 18.660157 8.355468 18.660157 18.664062v7.140625h10.570312v-36.605469zm0 0" fill="#a7b6bc"/><path d="m270.402344 268.46875h-143.722656c-25.757813 0-46.636719-20.878906-46.636719-46.632812v-106.453126c0-25.753906 20.878906-46.636718 46.636719-46.636718h143.722656c25.753906 0 46.636718 20.882812 46.636718 46.636718v106.453126c0 25.753906-20.882812 46.632812-46.636718 46.632812zm0 0" fill="#00777b"/><path d="m233.128906 268.46875h-106.449218c-25.757813 0-46.636719-20.878906-46.636719-46.632812v-106.453126c0-25.753906 20.878906-46.636718 46.636719-46.636718h106.449218c25.757813 0 46.636719 20.882812 46.636719 46.636718v106.453126c0 25.753906-20.878906 46.632812-46.636719 46.632812zm0 0" fill="#00989e"/><path d="m215.984375 24.992188c0 9.636718-7.808594 17.445312-17.445313 17.445312-9.632812 0-17.441406-7.808594-17.441406-17.445312 0-9.632813 7.808594-17.441407 17.441406-17.441407 9.636719 0 17.445313 7.808594 17.445313 17.441407zm0 0" fill="#ffda2d"/><path d="m198.539062 7.546875c-2.125 0-4.152343.398437-6.035156 1.097656 6.652344 2.457031 11.40625 8.839844 11.40625 16.347657 0 7.507812-4.753906 13.890624-11.40625 16.347656 1.882813.695312 3.910156 1.097656 6.035156 1.097656 9.636719 0 17.445313-7.8125 17.445313-17.445312 0-9.632813-7.808594-17.445313-17.445313-17.445313zm0 0" fill="#fec002"/><path d="m148.773438 268.46875h67.761718v43.132812h-67.761718zm0 0" fill="#00989e"/><path d="m216.535156 268.46875h-67.761718v14.089844h46.453124c11.769532 0 21.308594 9.542968 21.308594 21.308594v7.734374h31.773438v-43.132812zm0 0" fill="#00777b"/><path d="m198.539062 358.527344c-38.957031 0-70.652343 31.695312-70.652343 70.652344v8.003906c0 7.460937 6.070312 13.527344 13.527343 13.527344h66.304688c4.167969 0 7.546875-3.378907 7.546875-7.546876 0-4.167968-3.378906-7.546874-7.546875-7.546874h-64.738281v-6.4375c0-30.632813 24.925781-55.558594 55.558593-55.558594 30.632813 0 55.558594 24.925781 55.558594 55.558594v6.4375h-14.175781c-4.167969 0-7.546875 3.378906-7.546875 7.546874 0 4.167969 3.378906 7.546876 7.546875 7.546876h15.742187c7.460938 0 13.527344-6.066407 13.527344-13.527344v-8.003906c.003906-38.957032-31.691406-70.652344-70.652344-70.652344zm0 0"/><path d="m347.332031 304.054688c-10.460937 0-18.972656 8.511718-18.972656 18.972656v6.398437h-14.136719v-6.398437c0-10.460938-8.511718-18.972656-18.972656-18.972656h-39.398438v-28.035157h14.550782c29.875 0 54.183594-24.308593 54.183594-54.183593v-106.453126c0-29.875-24.308594-54.183593-54.183594-54.183593h-64.3125v-12.382813c10.101562-3.207031 17.441406-12.671875 17.441406-23.824218 0-13.78125-11.210938-24.992188-24.992188-24.992188s-24.992187 11.210938-24.992187 24.992188c0 11.152343 7.34375 20.617187 17.445313 23.824218v12.382813h-64.3125c-29.878907 0-54.183594 24.308593-54.183594 54.183593v106.453126c0 29.875 24.304687 54.183593 54.183594 54.183593h14.542968v28.035157h-39.390625c-10.460937 0-18.972656 8.511718-18.972656 18.972656v6.398437h-14.136719v-6.398437c0-10.460938-8.511718-18.972656-18.972656-18.972656-27.429688 0-49.75 22.316406-49.75 49.75v150.648437c0 4.167969 3.378906 7.546875 7.546875 7.546875h53.628906c4.167969 0 7.546875-3.378906 7.546875-7.546875v-84.011719c0-4.167968-3.378906-7.546875-7.546875-7.546875s-7.546875 3.378907-7.546875 7.546875v76.464844h-38.53125v-143.101562c0-19.109376 15.542969-34.65625 34.652344-34.65625 2.136719 0 3.878906 1.742187 3.878906 3.878906v67.222656c0 4.167969 3.378906 7.546875 7.546875 7.546875s7.546875-3.378906 7.546875-7.546875v-9.125h14.136719v123.328125c0 4.167969 3.378906 7.546875 7.546875 7.546875h216.269531c4.167969 0 7.546875-3.378906 7.546875-7.546875v-123.328125h14.136719v123.328125c0 4.167969 3.378906 7.546875 7.546875 7.546875h53.628906c4.167969 0 7.546875-3.378906 7.546875-7.546875v-150.648437c0-27.433594-22.320312-49.75-49.75-49.75zm-148.792969-288.957032c5.457032 0 9.898438 4.4375 9.898438 9.894532 0 5.457031-4.441406 9.898437-9.898438 9.898437-5.457031 0-9.894531-4.441406-9.894531-9.898437 0-5.457032 4.4375-9.894532 9.894531-9.894532zm42.21875 288.953125h-16.675781v-28.03125h16.675781zm-153.167968-82.214843v-106.453126c0-21.550781 17.535156-39.085937 39.089844-39.085937h106.449218c21.554688 0 39.089844 17.535156 39.089844 39.085937v59.332032c0 4.167968 3.378906 7.546875 7.546875 7.546875s7.546875-3.378907 7.546875-7.546875v-59.332032c0-15.347656-6.425781-29.214843-16.714844-39.082031 21.464844.109375 38.890625 17.597657 38.890625 39.082031v106.453126c0 21.484374-17.425781 38.972656-38.890625 39.082031 10.289063-9.867188 16.714844-23.734375 16.714844-39.082031v-11.878907c0-4.171875-3.378906-7.550781-7.546875-7.550781s-7.546875 3.378906-7.546875 7.550781v11.878907c0 21.5-17.453125 39-38.933594 39.082031h-58.457031c-.027344 0-.050781.003906-.078125.003906h-48.070312c-21.554688 0-39.089844-17.535156-39.089844-39.085937zm68.730468 54.183593h52.667969v28.03125h-34.15625c-.015625 0-.027343.003907-.039062.003907h-18.472657zm-87.597656 90.007813v-21.503906h14.136719v21.503906zm230.402344 130.875h-201.171875v-173.875c0-2.136719 1.742187-3.878906 3.878906-3.878906h193.417969c2.136719 0 3.878906 1.742187 3.878906 3.878906v173.875zm15.097656-130.875v-21.503906h14.136719v21.503906zm67.761719 130.875h-38.53125v-173.875c0-2.136719 1.742187-3.878906 3.878906-3.878906 19.109375 0 34.652344 15.546874 34.652344 34.65625zm0 0"/><path d="m163.914062 137.542969c0-15.976563-12.996093-28.972657-28.96875-28.972657-15.976562 0-28.972656 13-28.972656 28.972657 0 15.976562 12.996094 28.972656 28.972656 28.972656 15.972657 0 28.96875-12.996094 28.96875-28.972656zm-42.84375 0c0-7.652344 6.222657-13.875 13.875-13.875 7.648438 0 13.875 6.222656 13.875 13.875 0 7.652343-6.226562 13.875-13.875 13.875-7.652343 0-13.875-6.222657-13.875-13.875zm0 0"/><path d="m221.589844 166.335938c15.976562 0 28.972656-12.996094 28.972656-28.972657 0-15.972656-12.996094-28.96875-28.972656-28.96875-15.972656 0-28.96875 12.996094-28.96875 28.96875 0 15.976563 12.996094 28.972657 28.96875 28.972657zm0-42.847657c7.652344 0 13.875 6.226563 13.875 13.875 0 7.652344-6.222656 13.875-13.875 13.875-7.648438 0-13.875-6.222656-13.875-13.875 0-7.648437 6.226562-13.875 13.875-13.875zm0 0"/><path d="m210.980469 232.914062c10.011719 0 18.15625-8.144531 18.15625-18.15625v-9.605468c0-10.011719-8.144531-18.15625-18.15625-18.15625h-72.800781c-10.015626 0-18.160157 8.144531-18.160157 18.15625v9.605468c0 10.011719 8.148438 18.15625 18.160157 18.15625zm-44.933594-15.09375v-15.730468h17.613281v15.730468zm47.996094-12.667968v9.605468c0 1.6875-1.375 3.0625-3.0625 3.0625h-12.222657v-15.730468h12.222657c1.6875.003906 3.0625 1.375 3.0625 3.0625zm-78.925781 9.605468v-9.605468c0-1.6875 1.375-3.058594 3.0625-3.058594h12.773437v15.726562h-12.773437c-1.6875 0-3.0625-1.375-3.0625-3.0625zm0 0"/></svg>